<?xml version="1.0" standalone="no"?>
<!DOCTYPE svg PUBLIC "-//W3C//DTD SVG 20010904//EN"
 "http://www.w3.org/TR/2001/REC-SVG-20010904/DTD/svg10.dtd">
<svg version="1.0" xmlns="http://www.w3.org/2000/svg"
 width="2999.000000pt" height="2999.000000pt" viewBox="0 0 2999.000000 2999.000000"
 preserveAspectRatio="xMidYMid meet">
<metadata>
Created by potrace 1.15, written by Peter Selinger 2001-2017
</metadata>
<g transform="translate(0.000000,2999.000000) scale(0.100000,-0.100000)"
fill="#000000" stroke="none">
<path d="M14810 24983 c-2004 -30 -4002 -697 -5645 -1883 -664 -479 -1290
-1061 -1816 -1686 -688 -818 -1236 -1732 -1634 -2724 -698 -1741 -888 -3669
-545 -5525 299 -1615 991 -3132 2014 -4415 157 -196 283 -345 424 -497 l103
-113 -230 -692 c-126 -381 -237 -729 -246 -773 -97 -471 44 -944 380 -1280
207 -207 463 -340 755 -391 101 -18 323 -19 6625 -19 6254 0 6524 1 6614 18
298 57 539 183 747 391 208 209 332 441 391 732 23 119 23 404 0 519 -9 44
-116 396 -238 782 l-221 702 98 108 c1158 1267 1977 2826 2363 4499 354 1536
340 3147 -40 4669 -394 1575 -1153 3006 -2257 4250 -149 168 -609 628 -777
777 -900 798 -1880 1406 -2970 1843 -998 400 -2099 642 -3160 694 -228 12
-522 17 -735 14z m515 -1403 c1141 -46 2206 -296 3223 -757 1315 -595 2461
-1515 3337 -2678 1269 -1686 1873 -3796 1690 -5902 -154 -1757 -831 -3404
-1958 -4756 -241 -289 -605 -670 -840 -877 -53 -46 -92 -87 -87 -90 11 -7 679
-2122 673 -2132 -2 -5 -2873 -8 -6379 -8 -5093 0 -6374 3 -6374 13 1 24 698
2119 708 2126 5 3 -29 40 -76 81 -47 41 -185 174 -306 295 -1430 1424 -2298
3257 -2495 5265 -49 499 -49 1151 0 1650 227 2320 1366 4425 3184 5886 695
559 1509 1024 2345 1339 1065 402 2227 590 3355 545z"/>
<path d="M14670 22724 c-740 -42 -1378 -154 -2005 -354 -1026 -326 -1930 -836
-2765 -1559 -173 -150 -545 -519 -691 -686 -1276 -1456 -1949 -3234 -1949
-5145 0 -1712 557 -3351 1602 -4714 56 -75 105 -136 108 -136 3 0 14 17 25 38
33 62 163 183 240 224 216 112 440 116 655 11 78 -38 109 -60 176 -127 54 -54
92 -103 115 -148 19 -38 37 -68 40 -68 4 0 52 18 108 41 56 22 152 52 214 66
153 36 389 38 544 5 268 -58 478 -174 663 -368 130 -136 218 -281 266 -440 10
-32 21 -62 24 -67 4 -4 40 8 81 27 154 71 344 116 489 116 l77 0 -34 98 c-47
133 -88 294 -109 432 -26 161 -26 519 -1 680 47 295 152 595 296 838 l30 52
-490 475 c-270 261 -496 475 -502 475 -7 0 -168 15 -358 34 -403 39 -414 43
-454 139 -20 49 -19 90 5 136 45 90 99 107 278 89 72 -8 132 -12 132 -9 0 3
-38 43 -84 91 -65 66 -86 94 -91 123 -20 107 62 207 170 207 53 0 91 -23 181
-112 l81 -80 5 125 c7 141 20 182 75 224 26 20 49 28 91 30 71 5 126 -24 160
-82 22 -40 22 -41 17 -335 l-5 -295 495 -476 495 -477 138 137 c151 151 289
259 448 353 80 47 103 65 98 77 -32 78 -30 178 6 253 12 26 40 68 63 94 l41
47 -24 16 c-68 45 -186 149 -277 245 -232 242 -393 564 -455 904 -30 165 -30
439 0 604 52 283 181 573 355 794 l42 53 1346 0 1346 1 45 -57 c346 -442 465
-1040 311 -1573 -103 -360 -324 -685 -621 -918 l-83 -64 40 -35 c23 -20 54
-62 73 -101 30 -61 33 -76 38 -189 l5 -122 105 -69 c153 -100 289 -213 426
-355 l122 -125 512 495 512 496 -6 291 -7 291 23 40 c61 105 212 114 286 17
24 -32 27 -47 37 -174 l10 -139 75 76 c41 42 92 85 112 96 142 73 301 -82 229
-224 -11 -21 -51 -67 -90 -103 -39 -36 -71 -69 -71 -73 0 -4 61 -1 136 7 124
12 141 12 180 -3 107 -41 145 -161 81 -256 -43 -64 -67 -69 -450 -106 l-350
-34 -58 -52 c-31 -29 -262 -250 -512 -491 l-454 -439 40 -71 c116 -204 209
-470 258 -736 26 -138 37 -483 20 -630 -19 -166 -58 -343 -109 -495 l-48 -140
186 -1 c175 0 192 -2 305 -32 66 -18 123 -32 127 -32 3 0 12 24 18 52 28 121
110 287 194 397 63 82 210 219 293 274 393 261 913 287 1330 67 84 -44 93 -46
98 -30 14 44 111 177 174 239 378 373 1005 369 1375 -8 l60 -60 79 107 c1611
2189 1946 5099 876 7617 -71 169 -248 530 -341 698 -844 1530 -2196 2743
-3803 3412 -769 320 -1535 503 -2410 575 -131 11 -784 21 -905 14z m-500 -860
c68 -31 124 -84 158 -149 23 -43 27 -62 27 -140 0 -78 -4 -97 -27 -141 -35
-67 -115 -138 -180 -160 -69 -23 -187 -16 -246 15 -150 77 -218 264 -150 411
32 71 107 144 172 169 76 30 176 28 246 -5z m2243 -540 c66 -22 158 -109 188
-176 33 -73 34 -202 2 -270 -33 -71 -103 -141 -176 -173 -164 -74 -362 4 -440
173 -31 68 -31 197 1 267 24 53 87 124 138 155 78 49 187 58 287 24z m2107
-391 c62 -20 142 -88 172 -147 33 -64 37 -177 8 -244 -31 -73 -114 -147 -187
-168 -188 -55 -374 85 -374 280 0 89 29 153 98 216 83 76 177 97 283 63z
m-5755 -547 c92 -42 145 -125 145 -226 0 -254 -337 -344 -465 -125 -51 85 -43
196 18 277 70 92 197 123 302 74z m1789 -265 c72 -35 131 -95 167 -169 34 -70
38 -198 9 -274 -29 -79 -96 -150 -178 -190 -59 -30 -76 -33 -152 -33 -72 0
-94 4 -147 29 -68 31 -138 98 -171 162 -99 195 5 429 221 500 70 23 175 13
251 -25z m-4413 -545 c107 -25 194 -94 246 -196 25 -48 28 -66 28 -145 0 -78
-4 -98 -29 -153 -37 -80 -114 -152 -194 -182 -76 -29 -203 -25 -274 9 -75 36
-134 94 -170 169 -29 59 -33 76 -33 152 0 71 4 94 26 141 50 105 130 174 239
203 69 19 92 19 161 2z m5944 -25 c71 -33 137 -96 173 -166 20 -39 26 -69 30
-135 6 -119 -19 -183 -102 -266 -83 -83 -147 -108 -266 -102 -67 4 -96 10
-138 32 -217 111 -264 395 -92 566 107 108 257 135 395 71z m4161 -135 c77
-35 145 -103 181 -180 24 -52 28 -74 28 -146 0 -71 -4 -94 -26 -141 -36 -76
-86 -129 -161 -170 -60 -32 -68 -34 -163 -34 -95 0 -103 2 -163 34 -206 112
-255 377 -100 546 110 121 263 155 404 91z m-1899 -414 c106 -55 166 -148 166
-262 1 -85 -30 -155 -93 -214 -64 -60 -110 -79 -195 -80 -58 -1 -80 4 -127 27
-134 66 -197 211 -152 353 22 73 105 162 174 187 62 23 171 17 227 -11z
m-2725 -684 c115 -54 197 -163 218 -293 6 -36 10 -416 10 -952 l0 -892 333 -3
c315 -3 334 -4 378 -24 67 -31 124 -87 156 -152 57 -117 27 -271 -69 -357 -22
-21 -61 -47 -87 -59 l-46 -21 -1665 0 -1665 0 -50 25 c-66 32 -122 90 -152
158 -57 123 -19 277 88 362 84 66 110 70 471 70 l318 0 0 935 c0 921 0 935 21
990 39 105 126 190 232 226 48 17 99 18 752 16 l700 -2 57 -27z m-4077 -479
c72 -27 153 -101 190 -176 26 -51 30 -68 30 -148 0 -78 -4 -98 -29 -153 -37
-80 -114 -152 -194 -182 -76 -29 -203 -25 -274 9 -74 36 -134 94 -170 169 -29
59 -33 76 -33 152 0 71 4 94 26 141 85 180 270 257 454 188z m-2238 -170 c64
-24 113 -93 113 -159 0 -48 -17 -85 -57 -121 -106 -98 -275 -23 -275 122 0
113 116 197 219 158z m10596 -373 c73 -35 149 -118 177 -194 18 -47 21 -73 18
-142 -3 -73 -9 -94 -38 -148 -39 -73 -92 -124 -170 -161 -46 -22 -69 -26 -140
-26 -71 0 -94 4 -142 27 -234 110 -286 406 -101 579 84 79 142 100 259 96 64
-3 93 -9 137 -31z m-2166 -55 c148 -75 209 -238 142 -382 -52 -110 -145 -172
-264 -173 -126 -2 -230 71 -276 193 -55 145 33 329 180 376 63 20 164 14 218
-14z m3893 -723 c49 -34 72 -71 77 -125 7 -63 -14 -112 -63 -149 -32 -25 -46
-29 -100 -29 -68 0 -98 15 -138 69 -30 39 -30 143 0 183 37 49 82 73 139 73
38 0 61 -6 85 -22z m-12967 -652 c104 -43 138 -178 66 -260 -109 -125 -301
-46 -287 119 5 65 37 111 92 136 49 22 85 24 129 5z m11327 -318 c60 -31 90
-77 90 -140 0 -160 -169 -231 -281 -119 -62 62 -65 151 -6 218 57 65 122 79
197 41z m-9618 -144 c114 -80 121 -238 14 -332 -34 -30 -90 -52 -131 -52 -72
0 -150 52 -187 123 -30 60 -22 152 17 209 44 62 105 90 182 86 50 -3 71 -10
105 -34z m10880 -814 c21 -6 51 -27 71 -50 61 -67 62 -153 1 -219 -66 -74
-174 -76 -241 -5 -81 86 -56 216 51 265 47 21 67 23 118 9z m-11925 -721 c78
-38 113 -132 79 -212 -17 -42 -66 -83 -114 -98 -111 -33 -228 81 -202 198 12
51 39 84 90 111 55 28 92 28 147 1z"/>
<path d="M14257 15006 c-255 -71 -289 -420 -53 -544 70 -36 188 -38 257 -4
177 87 224 315 94 460 -75 83 -193 118 -298 88z"/>
<path d="M15213 15002 c-169 -60 -245 -237 -173 -400 79 -177 313 -227 458
-97 122 109 132 293 23 418 -71 80 -207 115 -308 79z"/>
<path d="M14652 14238 c3 -7 47 -140 99 -295 52 -156 96 -283 99 -283 3 0 47
127 99 283 52 155 96 288 99 295 3 9 -40 12 -198 12 -158 0 -201 -3 -198 -12z"/>
<path d="M15565 13706 c-79 -35 -113 -128 -77 -210 36 -80 124 -114 205 -78
63 28 92 73 92 144 0 61 -17 94 -67 131 -33 25 -113 32 -153 13z"/>
<path d="M13855 13696 c-79 -35 -113 -128 -77 -210 36 -80 124 -114 205 -78
63 28 92 73 92 144 0 61 -17 94 -67 131 -33 25 -113 32 -153 13z"/>
<path d="M14233 13429 c-17 -11 -42 -40 -53 -65 -51 -105 23 -224 141 -224
154 0 216 201 89 288 -44 30 -131 31 -177 1z"/>
<path d="M15173 13430 c-115 -59 -115 -228 1 -281 53 -24 90 -24 140 1 57 28
79 63 84 130 3 45 0 61 -20 89 -51 76 -130 99 -205 61z"/>
<path d="M14712 13333 c-68 -33 -104 -113 -83 -185 35 -117 177 -155 262 -69
126 125 -20 333 -179 254z"/>
</g>
</svg>
